<?xml version="1.0" encoding="UTF-8" standalone="no"?>
<!-- Created with Inkscape (http://www.inkscape.org/) -->

<svg
   width="210mm"
   height="297mm"
   viewBox="0 0 210 297"
   version="1.1"
   id="svg1"
   xml:space="preserve"
   xmlns="http://www.w3.org/2000/svg"
   xmlns:svg="http://www.w3.org/2000/svg"><defs
     id="defs1" /><g
     id="layer1"><path
       style="fill:#000000;stroke-width:0.02;stroke-dasharray:none"
       d="m 72.150187,148.78648 v -7.62715 l 4.759158,0.0263 4.75915,0.0262 0.0276,2.96604 0.0276,2.96603 2.0529,-0.0602 c 1.97612,-0.0579 3.37487,-0.21203 4.80957,-0.52994 0.84295,-0.18679 2.73115,-0.74478 2.83091,-0.83658 0.0408,-0.0376 -0.13792,-0.36284 -0.39723,-0.72282 -1.60372,-2.22627 -2.75742,-4.92903 -3.33754,-7.81879 -0.26766,-1.33333 -0.26434,-5.15507 0.006,-6.55886 0.52264,-2.71679 1.74265,-5.58911 3.29959,-7.76837 0.27701,-0.38774 0.47027,-0.73536 0.42945,-0.77248 -0.0787,-0.0716 -2.23998,-0.69563 -3.05302,-0.88154 -1.10521,-0.25272 -2.86117,-0.43553 -4.69306,-0.48859 l -1.95047,-0.0565 v 7.73342 7.73341 h -4.78517 -4.785158 v -12.36874 -12.36875 l 7.203748,0.0434 c 7.83304,0.0472 7.99715,0.0572 10.98258,0.67499 2.78397,0.57605 5.37776,1.46619 7.79782,2.67607 l 1.27814,0.639 0.933995,-0.49982 c 2.84251,-1.52112 6.89428,-2.7643 10.70916,-3.2858 1.13786,-0.15555 2.19057,-0.17801 8.42605,-0.17974 l 7.12573,-0.002 0.0267,6.78589 0.0267,6.7859 h -4.78589 -4.7859 v -2.18329 -2.18329 l -2.05449,0.0579 c -2.07503,0.0584 -3.40886,0.21297 -5.0122,0.58077 -1.14659,0.26303 -2.59709,0.70348 -2.66435,0.80904 -0.0292,0.0459 0.1649,0.39218 0.43137,0.76959 3.4731,4.91902 4.44604,11.01291 2.66307,16.67972 -0.38021,1.20842 -0.95513,2.55617 -1.50653,3.53169 -0.46173,0.81688 -1.34724,2.16744 -1.59754,2.43656 -0.14114,0.15175 -0.0704,0.193 0.81409,0.47487 2.33051,0.74268 4.06029,1.01667 6.9241,1.09675 l 2.00248,0.056 v -2.94023 -2.94024 h 4.78583 4.78582 l -0.0267,7.54267 -0.0267,7.54269 -6.18951,0.0301 c -3.72256,0.0181 -6.79069,-0.013 -7.69787,-0.078 -4.22483,-0.30294 -8.28614,-1.41154 -12.10437,-3.30407 l -1.224265,-0.60681 -1.16358,0.5855 c -3.1079,1.56387 -6.23062,2.52554 -10.21378,3.14544 -1.25455,0.19524 -1.87689,0.21347 -8.60809,0.25214 l -7.255758,0.0417 z m 15.656888,7.07884 c 4.03021,-0.62628 6.85786,-1.49321 10.16336,-3.11598 l 1.42632,-0.70023 1.070285,0.5503 c 2.99183,1.53827 6.2967,2.58439 10.14741,3.21207 1.24503,0.20294 1.76216,0.21854 8.52914,0.25727 l 7.20375,0.0412 v -7.32296 -7.32294 h -4.52353 -4.52352 l -0.0276,2.95147 -0.0276,2.95149 -1.92447,-0.0124 c -2.70656,-0.0175 -4.55448,-0.27527 -6.85862,-0.95684 -1.32883,-0.39307 -1.56742,-0.49309 -1.56742,-0.65711 0,-0.0763 0.23872,-0.46326 0.53048,-0.85989 2.60441,-3.54047 3.92904,-8.19596 3.54913,-12.47364 -0.32354,-3.64305 -1.62064,-6.92336 -4.01815,-10.16175 -0.20378,-0.27525 0.053,-0.43082 1.30648,-0.79154 2.60191,-0.74875 4.00963,-0.96156 6.92807,-1.0473 l 2.10651,-0.0619 v 2.23501 2.23501 h 4.5251 4.5251 v -6.56617 -6.56616 l -7.20375,0.0412 c -6.78539,0.0388 -7.2814,0.0539 -8.54092,0.25903 -3.86403,0.62937 -7.08552,1.64211 -10.03418,3.15447 l -1.176875,0.60361 -1.42375,-0.69896 c -2.96196,-1.45411 -5.50202,-2.27957 -8.86156,-2.8798 -2.27576,-0.4066 -3.52715,-0.46283 -10.32493,-0.46393 l -6.423979,-0.001 0.02643,12.08343 0.02643,12.08344 4.498444,0.0263 4.49845,0.0263 0.0266,-7.74557 0.0267,-7.74557 1.82045,0.009 c 1.9488,0.009 3.40924,0.14231 4.99321,0.45409 1.20993,0.23816 3.33013,0.86841 3.52025,1.04642 0.11581,0.10844 0.0423,0.26742 -0.43412,0.93832 -2.66855,3.75819 -3.90518,8.00454 -3.59189,12.33385 0.23964,3.31133 1.41428,6.58988 3.36336,9.38745 0.4308,0.61835 0.78328,1.15981 0.78328,1.20324 0,0.10072 -0.61061,0.32132 -1.92447,0.69527 -2.16945,0.61747 -4.03236,0.8605 -6.65761,0.86853 l -1.87246,0.006 -0.0276,-2.95149 -0.0276,-2.95147 h -4.52353 -4.523527 v 7.32241 7.32242 l 7.203747,-0.0409 c 5.95729,-0.0338 7.38393,-0.0689 8.24509,-0.20271 z m 10.87795,-15.96298 c -0.93778,-1.31587 -1.54879,-2.76443 -1.82608,-4.32922 -0.27055,-1.52681 -0.14607,-3.33613 0.32711,-4.75457 0.48106,-1.44203 1.85794,-3.72484 2.20886,-3.66221 0.24486,0.0437 1.299445,1.61917 1.728435,2.58213 0.69678,1.56412 0.81753,2.17818 0.81753,4.1577 0,1.94253 -0.11429,2.54869 -0.76744,4.07059 -0.38105,0.88785 -1.539565,2.6266 -1.778525,2.66924 -0.10659,0.019 -0.36044,-0.24333 -0.70989,-0.73366 z m 1.26105,-0.38199 c 2.039745,-3.04451 2.351635,-6.60398 0.854385,-9.75071 -0.37951,-0.7976 -1.288575,-2.22694 -1.417785,-2.22921 -0.14214,-0.002 -0.94314,1.24202 -1.39525,2.16781 -0.72984,1.49449 -0.91521,2.34274 -0.91521,4.18793 0,1.84519 0.18537,2.69345 0.91521,4.18793 0.45211,0.9258 1.25311,2.17032 1.39525,2.16782 0.0408,-7.2e-4 0.29431,-0.32992 0.5634,-0.73157 z m 18.977965,-0.55615 c -0.0274,-0.043 0.0664,-0.88994 0.20838,-1.88214 0.18493,-1.29211 0.22544,-1.82362 0.14277,-1.87318 -0.0635,-0.0381 -0.78027,-0.12447 -1.59287,-0.19203 -1.90295,-0.15822 -2.25763,-0.21346 -2.25763,-0.35163 0,-0.0623 0.72675,-0.53947 1.615,-1.06034 0.88826,-0.52088 1.63639,-0.9806 1.66252,-1.02161 0.0261,-0.041 -0.0816,-0.25051 -0.23929,-0.46556 -0.60607,-0.82629 -1.78993,-2.64672 -1.78993,-2.75239 0,-0.0609 0.067,-0.1108 0.14888,-0.1108 0.13786,0 2.08265,0.67189 3.19151,1.10262 l 0.47969,0.18633 0.59792,-1.81016 c 0.46226,-1.39947 0.63469,-1.80325 0.75997,-1.77967 0.10905,0.0205 0.3541,0.58942 0.74936,1.7396 0.32303,0.94001 0.63456,1.72437 0.69229,1.74304 0.0577,0.0187 0.85059,-0.23935 1.7619,-0.57337 0.91131,-0.33402 1.71544,-0.60755 1.78695,-0.60785 0.27123,-10e-4 0.10037,0.34775 -0.85821,1.75238 -0.54353,0.79645 -0.98824,1.48868 -0.98824,1.53827 0,0.0496 0.72558,0.51237 1.6124,1.02837 0.88681,0.51601 1.61239,0.99886 1.61239,1.07299 0,0.16626 -0.28837,0.21616 -2.13252,0.36901 -0.801,0.0664 -1.52898,0.14807 -1.61776,0.18151 -0.14413,0.0543 -0.13656,0.23349 0.0709,1.6753 0.27774,1.93063 0.28997,2.16946 0.11109,2.16946 -0.0745,0 -0.7301,-0.60818 -1.45687,-1.35151 l -1.3214,-1.35151 -1.36978,1.35151 c -0.75338,0.74333 -1.40574,1.35151 -1.44969,1.35151 -0.044,0 -0.10232,-0.0352 -0.1297,-0.0781 z m 2.90805,-2.9522 c 0.0626,0.002 0.66798,0.54739 1.34523,1.21252 0.67726,0.66514 1.24092,1.19868 1.25259,1.18564 0.0117,-0.013 -0.0857,-0.77292 -0.21626,-1.68863 -0.1306,-0.91572 -0.20717,-1.69662 -0.17016,-1.73534 0.037,-0.0387 0.8397,-0.14289 1.78373,-0.23148 0.94403,-0.0886 1.74733,-0.17043 1.78511,-0.18187 0.0378,-0.0114 -0.62928,-0.42676 -1.48236,-0.92295 -0.85308,-0.4962 -1.55106,-0.95048 -1.55106,-1.00952 0,-0.0591 0.42392,-0.73653 0.94204,-1.50552 0.51812,-0.76899 0.92772,-1.40942 0.91022,-1.42317 -0.0175,-0.0137 -0.7722,0.24558 -1.67712,0.57629 -0.90492,0.3307 -1.6674,0.57984 -1.69441,0.55364 -0.027,-0.0262 -0.28356,-0.72321 -0.57012,-1.54892 -0.28657,-0.82572 -0.54759,-1.56941 -0.58005,-1.65266 -0.0325,-0.0832 -0.31051,0.57229 -0.61788,1.45676 -0.30738,0.88446 -0.59797,1.64604 -0.64576,1.6924 -0.0478,0.0464 -0.4112,-0.0347 -0.80757,-0.18 -1.89748,-0.69586 -2.64742,-0.93501 -2.57789,-0.82208 0.0418,0.0678 0.46891,0.6999 0.94922,1.40464 0.48032,0.70474 0.8577,1.35581 0.83864,1.44682 -0.0191,0.091 -0.70154,0.55879 -1.5166,1.03949 -0.81507,0.4807 -1.44702,0.88301 -1.40434,0.89401 0.0427,0.011 0.84998,0.0947 1.79401,0.18602 0.94403,0.0913 1.73503,0.1836 1.75778,0.20511 0.0228,0.0215 -0.0592,0.75899 -0.18204,1.63884 -0.12288,0.87986 -0.22167,1.664 -0.21955,1.74254 0.002,0.0785 0.55216,-0.41488 1.2223,-1.09649 0.67014,-0.6816 1.26967,-1.23784 1.3323,-1.23609 z"
       id="path1" /></g></svg>
